<svg width="32" height="32" viewBox="0 0 32 32" fill="none" xmlns="http://www.w3.org/2000/svg">
<path opacity="0.153832" d="M15.9996 32C24.8362 32 31.9996 24.8366 31.9996 16C31.9996 7.16344 24.8362 0 15.9996 0C7.16308 0 -0.000366211 7.16344 -0.000366211 16C-0.000366211 24.8366 7.16308 32 15.9996 32Z" fill="#DBCFF2"/>
<path d="M15.052 21L15.036 16.4545H12.9996V14.6364H15.036V13.5C15.036 11.813 16.2061 11 17.8916 11C18.6989 11 19.3928 11.0537 19.5951 11.0777V12.8407L18.4261 12.8411C17.5094 12.8411 17.3319 13.2301 17.3319 13.8008V14.6364H19.9996L18.9815 16.4545H17.3319V21H15.052Z" fill="white"/>
</svg>
