<svg width="32" height="32" viewBox="0 0 32 32" fill="none" xmlns="http://www.w3.org/2000/svg">
<path opacity="0.153832" d="M16 32C24.8366 32 32 24.8366 32 16C32 7.16344 24.8366 0 16 0C7.16344 0 0 7.16344 0 16C0 24.8366 7.16344 32 16 32Z" fill="#DBCFF2"/>
<path d="M19.9427 10H12.0572C10.9211 10 10 10.9211 10 12.0572V19.9429C10 21.0789 10.9211 22 12.0572 22H19.9429C21.0789 22 22 21.0789 22 19.9427V12.0572C22 10.9211 21.0789 10 19.9427 10ZM14.1273 14.9596C14.1281 14.9583 14.1291 14.9568 14.1301 14.9552C14.154 14.9123 14.1796 14.8705 14.2064 14.8295C14.2221 14.8053 14.2388 14.7821 14.2555 14.7587C14.274 14.7328 14.2929 14.7075 14.3125 14.6824C14.3293 14.6608 14.3457 14.6392 14.3635 14.6184C14.3968 14.5789 14.4316 14.5407 14.4677 14.5036C14.4853 14.4856 14.5039 14.4683 14.5221 14.4508C14.5481 14.426 14.5747 14.4019 14.602 14.3784C14.6203 14.3627 14.6383 14.3468 14.6571 14.3316C14.6993 14.2975 14.7431 14.2647 14.7879 14.2337C14.8041 14.2225 14.8212 14.2121 14.8379 14.2015C14.8733 14.1784 14.9095 14.1564 14.9464 14.1353C14.9641 14.1253 14.9817 14.1151 14.9997 14.1055C15.0511 14.0784 15.1032 14.0528 15.1567 14.0299C15.1691 14.0245 15.1819 14.0201 15.1943 14.0151C15.2401 13.9964 15.2867 13.9793 15.3341 13.9639C15.3511 13.9583 15.3679 13.9528 15.3848 13.9477C15.4437 13.9301 15.5032 13.9143 15.564 13.9017C15.5707 13.9003 15.5777 13.8995 15.5844 13.8981C15.6403 13.8871 15.6971 13.8788 15.7543 13.8721C15.7712 13.8703 15.7881 13.8685 15.8049 13.8669C15.8692 13.8611 15.9341 13.8571 15.9999 13.8571C16.0656 13.8571 16.1304 13.8611 16.1948 13.8669C16.2116 13.8685 16.2285 13.8703 16.2453 13.8721C16.3029 13.8787 16.3593 13.8871 16.4153 13.8981C16.4221 13.8995 16.4292 13.9003 16.4356 13.9017C16.4965 13.9143 16.5559 13.9301 16.6148 13.9477C16.6319 13.9529 16.6485 13.9584 16.6655 13.9639C16.7129 13.9795 16.7597 13.9967 16.8057 14.0152C16.8183 14.0203 16.8308 14.0245 16.8429 14.0299C16.8963 14.0528 16.9487 14.0784 17.0001 14.1056C17.0179 14.1149 17.0355 14.1251 17.0529 14.1349C17.0904 14.156 17.1269 14.1784 17.1628 14.2016C17.1789 14.2123 17.1957 14.2223 17.2116 14.2333C17.2568 14.2644 17.3007 14.2973 17.3432 14.3317C17.3616 14.3467 17.3793 14.3623 17.3971 14.3777C17.4247 14.4016 17.4517 14.4261 17.4781 14.4513C17.496 14.4685 17.5143 14.4853 17.5313 14.5031C17.5677 14.5403 17.6027 14.5789 17.6365 14.6188C17.6537 14.6391 17.6699 14.6603 17.6863 14.6813C17.7061 14.7069 17.7256 14.7329 17.7447 14.7595C17.7611 14.7824 17.7775 14.8053 17.7929 14.8289C18.0131 15.1657 18.1423 15.5676 18.1423 16C18.1423 17.1832 17.1828 18.1427 15.9996 18.1427C14.8161 18.1427 13.8568 17.1832 13.8568 16C13.8572 15.6221 13.9557 15.268 14.1273 14.9596ZM20.7143 19.3033C20.7143 20.1364 20.0388 20.8117 19.2057 20.8117H12.7943C11.9611 20.8117 11.2857 20.1365 11.2857 19.3033V14.9596H12.7332C12.6287 15.2879 12.5715 15.6373 12.5715 16C12.5715 17.8933 14.1067 19.4285 16 19.4285C17.8933 19.4285 19.4285 17.8933 19.4285 16C19.4285 15.6372 19.3713 15.2879 19.2668 14.9596H20.7143V19.3033ZM20.7143 13.2173C20.7143 13.3645 20.5948 13.484 20.4472 13.484H18.9809C18.8336 13.484 18.7141 13.3647 18.7141 13.2173V11.7509C18.7141 11.6036 18.8336 11.4843 18.9809 11.4843H20.4472C20.5948 11.4843 20.7143 11.6037 20.7143 11.7509V13.2173Z" fill="white"/>
</svg>
