<svg width="32" height="32" viewBox="0 0 32 32" fill="none" xmlns="http://www.w3.org/2000/svg">
<path opacity="0.153832" d="M16 32C24.8366 32 32 24.8366 32 16C32 7.16344 24.8366 0 16 0C7.16344 0 0 7.16344 0 16C0 24.8366 7.16344 32 16 32Z" fill="#DBCFF2"/>
<path d="M21 12.9485C20.625 13.1134 20.25 13.2371 19.8333 13.2784C20.25 13.0309 20.5833 12.6186 20.75 12.1649C20.3333 12.4124 19.9167 12.5773 19.4583 12.6598C19.0833 12.2474 18.5417 12 17.9583 12C16.8333 12 15.9167 12.9072 15.9167 14.0206C15.9167 14.1856 15.9167 14.3505 15.9583 14.4742C14.2083 14.3918 12.7083 13.567 11.7083 12.3299C11.5 12.6598 11.4167 12.9897 11.4167 13.3608C11.4167 14.0619 11.7917 14.6804 12.3333 15.0515C12 15.0515 11.6667 14.9691 11.4167 14.8041C11.4167 14.8041 11.4167 14.8041 11.4167 14.8454C11.4167 15.8351 12.125 16.6598 13.0417 16.8247C12.875 16.866 12.7083 16.9072 12.5 16.9072C12.375 16.9072 12.25 16.9072 12.125 16.866C12.375 17.6907 13.125 18.268 14.0417 18.268C13.3333 18.8041 12.4583 19.134 11.5 19.134C11.3333 19.134 11.1667 19.134 11 19.0928C11.9167 19.6701 13 20 14.125 20C17.9167 20 19.9583 16.9072 19.9583 14.2268C19.9583 14.1443 19.9583 14.0619 19.9583 13.9794C20.375 13.6907 20.7083 13.3196 21 12.9485Z" fill="white"/>
</svg>
